<mxfile host="app.diagrams.net" modified="2024-06-25T23:48:03.365Z" agent="Mozilla/5.0 (Windows NT 10.0; Win64; x64) AppleWebKit/537.36 (KHTML, like Gecko) Chrome/126.0.0.0 Safari/537.36" etag="eZtNYilchIUA19qRkm_a" version="24.6.3" type="google" pages="2">
  <diagram id="R2lEEEUBdFMjLlhIrx00" name="Page-1">
    <mxGraphModel dx="2835" dy="1903" grid="1" gridSize="10" guides="1" tooltips="1" connect="1" arrows="1" fold="1" page="1" pageScale="1" pageWidth="850" pageHeight="1100" math="0" shadow="0" extFonts="Permanent Marker^https://fonts.googleapis.com/css?family=Permanent+Marker">
      <root>
        <mxCell id="0" />
        <mxCell id="1" parent="0" />
        <mxCell id="Smx8bIJCaOYHprBlWgsa-5" style="edgeStyle=none;rounded=0;orthogonalLoop=1;jettySize=auto;html=1;exitX=0.5;exitY=1;exitDx=0;exitDy=0;endArrow=none;endFill=0;" parent="1" source="sopRcR-KDbMupNtGTnjP-26" edge="1">
          <mxGeometry relative="1" as="geometry">
            <mxPoint x="150.00000000000045" y="335" as="targetPoint" />
          </mxGeometry>
        </mxCell>
        <mxCell id="sopRcR-KDbMupNtGTnjP-26" value="Aprovar" style="shape=rhombus;perimeter=rhombusPerimeter;whiteSpace=wrap;html=1;align=center;" parent="1" vertex="1">
          <mxGeometry x="90" y="-11" width="120" height="60" as="geometry" />
        </mxCell>
        <mxCell id="sopRcR-KDbMupNtGTnjP-32" value="1,1" style="text;html=1;align=center;verticalAlign=middle;resizable=0;points=[];autosize=1;strokeColor=none;fillColor=none;" parent="1" vertex="1">
          <mxGeometry x="400" y="-11" width="40" height="30" as="geometry" />
        </mxCell>
        <mxCell id="mYLIAVt1_VowKoSVpf7--23" style="edgeStyle=orthogonalEdgeStyle;rounded=0;orthogonalLoop=1;jettySize=auto;html=1;exitX=0.5;exitY=1;exitDx=0;exitDy=0;entryX=0.5;entryY=0;entryDx=0;entryDy=0;endArrow=none;endFill=0;" parent="1" source="sopRcR-KDbMupNtGTnjP-28" target="mYLIAVt1_VowKoSVpf7--19" edge="1">
          <mxGeometry relative="1" as="geometry" />
        </mxCell>
        <mxCell id="sopRcR-KDbMupNtGTnjP-28" value="Compor" style="shape=rhombus;perimeter=rhombusPerimeter;whiteSpace=wrap;html=1;align=center;" parent="1" vertex="1">
          <mxGeometry x="460" y="160" width="120" height="60" as="geometry" />
        </mxCell>
        <mxCell id="sopRcR-KDbMupNtGTnjP-35" value="1,N&lt;span style=&quot;color: rgba(0, 0, 0, 0); font-family: monospace; font-size: 0px; text-align: start;&quot;&gt;%3CmxGraphModel%3E%3Croot%3E%3CmxCell%20id%3D%220%22%2F%3E%3CmxCell%20id%3D%221%22%20parent%3D%220%22%2F%3E%3CmxCell%20id%3D%222%22%20value%3D%22Cargo%22%20style%3D%22whiteSpace%3Dwrap%3Bhtml%3D1%3Balign%3Dcenter%3B%22%20vertex%3D%221%22%20parent%3D%221%22%3E%3CmxGeometry%20x%3D%2240%22%20y%3D%22370%22%20width%3D%22100%22%20height%3D%2240%22%20as%3D%22geometry%22%2F%3E%3C%2FmxCell%3E%3C%2Froot%3E%3C%2FmxGraphModel%3E&lt;/span&gt;" style="text;html=1;align=center;verticalAlign=middle;resizable=0;points=[];autosize=1;strokeColor=none;fillColor=none;" parent="1" vertex="1">
          <mxGeometry x="520" y="80" width="40" height="30" as="geometry" />
        </mxCell>
        <mxCell id="sopRcR-KDbMupNtGTnjP-36" value="1,N" style="text;html=1;align=center;verticalAlign=middle;resizable=0;points=[];autosize=1;strokeColor=none;fillColor=none;" parent="1" vertex="1">
          <mxGeometry x="520" y="250" width="40" height="30" as="geometry" />
        </mxCell>
        <mxCell id="sopRcR-KDbMupNtGTnjP-40" value="1,1" style="text;html=1;align=center;verticalAlign=middle;resizable=0;points=[];autosize=1;strokeColor=none;fillColor=none;" parent="1" vertex="1">
          <mxGeometry x="40" y="330" width="40" height="30" as="geometry" />
        </mxCell>
        <mxCell id="sopRcR-KDbMupNtGTnjP-41" value="1,N" style="text;html=1;align=center;verticalAlign=middle;resizable=0;points=[];autosize=1;strokeColor=none;fillColor=none;" parent="1" vertex="1">
          <mxGeometry x="150" y="260" width="40" height="30" as="geometry" />
        </mxCell>
        <mxCell id="V5zumWaYjX5LMZ9myILu-4" value="" style="edgeStyle=orthogonalEdgeStyle;rounded=0;orthogonalLoop=1;jettySize=auto;html=1;" edge="1" parent="1" source="sopRcR-KDbMupNtGTnjP-42" target="Smx8bIJCaOYHprBlWgsa-37">
          <mxGeometry relative="1" as="geometry" />
        </mxCell>
        <mxCell id="sopRcR-KDbMupNtGTnjP-42" value="1,N" style="text;html=1;align=center;verticalAlign=middle;resizable=0;points=[];autosize=1;strokeColor=none;fillColor=none;" parent="1" vertex="1">
          <mxGeometry x="240" y="320" width="40" height="30" as="geometry" />
        </mxCell>
        <mxCell id="sopRcR-KDbMupNtGTnjP-43" value="1,N" style="text;html=1;align=center;verticalAlign=middle;resizable=0;points=[];autosize=1;strokeColor=none;fillColor=none;" parent="1" vertex="1">
          <mxGeometry x="410" y="325" width="40" height="30" as="geometry" />
        </mxCell>
        <mxCell id="mYLIAVt1_VowKoSVpf7--15" style="edgeStyle=orthogonalEdgeStyle;rounded=0;orthogonalLoop=1;jettySize=auto;html=1;exitX=0.5;exitY=1;exitDx=0;exitDy=0;entryX=0.5;entryY=0;entryDx=0;entryDy=0;endArrow=none;endFill=0;" parent="1" source="sopRcR-KDbMupNtGTnjP-44" target="mYLIAVt1_VowKoSVpf7--11" edge="1">
          <mxGeometry relative="1" as="geometry" />
        </mxCell>
        <mxCell id="mYLIAVt1_VowKoSVpf7--30" style="edgeStyle=orthogonalEdgeStyle;rounded=0;orthogonalLoop=1;jettySize=auto;html=1;endArrow=none;endFill=0;" parent="1" source="sopRcR-KDbMupNtGTnjP-44" target="mYLIAVt1_VowKoSVpf7--24" edge="1">
          <mxGeometry relative="1" as="geometry" />
        </mxCell>
        <mxCell id="sopRcR-KDbMupNtGTnjP-44" value="Assumir" style="shape=rhombus;perimeter=rhombusPerimeter;whiteSpace=wrap;html=1;align=center;" parent="1" vertex="1">
          <mxGeometry x="460" y="515" width="120" height="60" as="geometry" />
        </mxCell>
        <mxCell id="sopRcR-KDbMupNtGTnjP-46" value="1,1" style="text;html=1;align=center;verticalAlign=middle;resizable=0;points=[];autosize=1;strokeColor=none;fillColor=none;" parent="1" vertex="1">
          <mxGeometry x="520" y="590" width="40" height="30" as="geometry" />
        </mxCell>
        <mxCell id="sopRcR-KDbMupNtGTnjP-47" value="1,1" style="text;html=1;align=center;verticalAlign=middle;resizable=0;points=[];autosize=1;strokeColor=none;fillColor=none;" parent="1" vertex="1">
          <mxGeometry x="520" y="445" width="40" height="30" as="geometry" />
        </mxCell>
        <mxCell id="sopRcR-KDbMupNtGTnjP-48" value="Escrever" style="shape=rhombus;perimeter=rhombusPerimeter;whiteSpace=wrap;html=1;align=center;" parent="1" vertex="1">
          <mxGeometry x="700" y="330" width="120" height="60" as="geometry" />
        </mxCell>
        <mxCell id="sopRcR-KDbMupNtGTnjP-53" value="1,N" style="text;html=1;align=center;verticalAlign=middle;resizable=0;points=[];autosize=1;strokeColor=none;fillColor=none;" parent="1" vertex="1">
          <mxGeometry x="640" y="325" width="40" height="30" as="geometry" />
        </mxCell>
        <mxCell id="sopRcR-KDbMupNtGTnjP-54" value="0,N" style="text;html=1;align=center;verticalAlign=middle;resizable=0;points=[];autosize=1;strokeColor=none;fillColor=none;" parent="1" vertex="1">
          <mxGeometry x="870" y="330" width="40" height="30" as="geometry" />
        </mxCell>
        <mxCell id="mYLIAVt1_VowKoSVpf7--36" style="edgeStyle=orthogonalEdgeStyle;rounded=0;orthogonalLoop=1;jettySize=auto;html=1;exitX=0.5;exitY=1;exitDx=0;exitDy=0;entryX=0.5;entryY=0;entryDx=0;entryDy=0;endArrow=none;endFill=0;" parent="1" source="sopRcR-KDbMupNtGTnjP-55" target="mYLIAVt1_VowKoSVpf7--32" edge="1">
          <mxGeometry relative="1" as="geometry" />
        </mxCell>
        <mxCell id="sopRcR-KDbMupNtGTnjP-55" value="Publicar" style="shape=rhombus;perimeter=rhombusPerimeter;whiteSpace=wrap;html=1;align=center;" parent="1" vertex="1">
          <mxGeometry x="930" y="465" width="120" height="60" as="geometry" />
        </mxCell>
        <mxCell id="sopRcR-KDbMupNtGTnjP-58" value="1,N" style="text;html=1;align=center;verticalAlign=middle;resizable=0;points=[];autosize=1;strokeColor=none;fillColor=none;" parent="1" vertex="1">
          <mxGeometry x="990" y="415" width="40" height="30" as="geometry" />
        </mxCell>
        <mxCell id="sopRcR-KDbMupNtGTnjP-59" value="1,1" style="text;html=1;align=center;verticalAlign=middle;resizable=0;points=[];autosize=1;strokeColor=none;fillColor=none;" parent="1" vertex="1">
          <mxGeometry x="990" y="540" width="40" height="30" as="geometry" />
        </mxCell>
        <mxCell id="Smx8bIJCaOYHprBlWgsa-1" style="edgeStyle=none;rounded=0;orthogonalLoop=1;jettySize=auto;html=1;exitX=1;exitY=0;exitDx=0;exitDy=0;" parent="1" source="sopRcR-KDbMupNtGTnjP-34" target="sopRcR-KDbMupNtGTnjP-34" edge="1">
          <mxGeometry relative="1" as="geometry" />
        </mxCell>
        <mxCell id="mYLIAVt1_VowKoSVpf7--1" style="edgeStyle=orthogonalEdgeStyle;rounded=0;orthogonalLoop=1;jettySize=auto;html=1;exitX=0;exitY=0.5;exitDx=0;exitDy=0;entryX=1;entryY=0.25;entryDx=0;entryDy=0;endArrow=none;endFill=0;" parent="1" source="sopRcR-KDbMupNtGTnjP-34" target="Smx8bIJCaOYHprBlWgsa-39" edge="1">
          <mxGeometry relative="1" as="geometry" />
        </mxCell>
        <mxCell id="sopRcR-KDbMupNtGTnjP-34" value="Possui" style="shape=rhombus;perimeter=rhombusPerimeter;whiteSpace=wrap;html=1;align=center;" parent="1" vertex="1">
          <mxGeometry x="-90" y="325" width="120" height="60" as="geometry" />
        </mxCell>
        <mxCell id="sopRcR-KDbMupNtGTnjP-31" value="1,N" style="text;html=1;align=center;verticalAlign=middle;resizable=0;points=[];autosize=1;strokeColor=none;fillColor=none;" parent="1" vertex="1">
          <mxGeometry x="-160" y="325" width="40" height="30" as="geometry" />
        </mxCell>
        <mxCell id="mYLIAVt1_VowKoSVpf7--2" style="edgeStyle=orthogonalEdgeStyle;rounded=0;orthogonalLoop=1;jettySize=auto;html=1;entryX=0.5;entryY=1;entryDx=0;entryDy=0;endArrow=none;endFill=0;" parent="1" source="Smx8bIJCaOYHprBlWgsa-14" target="Smx8bIJCaOYHprBlWgsa-39" edge="1">
          <mxGeometry relative="1" as="geometry" />
        </mxCell>
        <mxCell id="mYLIAVt1_VowKoSVpf7--3" style="edgeStyle=orthogonalEdgeStyle;rounded=0;orthogonalLoop=1;jettySize=auto;html=1;exitX=0.5;exitY=1;exitDx=0;exitDy=0;endArrow=none;endFill=0;" parent="1" source="Smx8bIJCaOYHprBlWgsa-14" target="Smx8bIJCaOYHprBlWgsa-41" edge="1">
          <mxGeometry relative="1" as="geometry" />
        </mxCell>
        <mxCell id="Smx8bIJCaOYHprBlWgsa-14" value="Contém" style="shape=rhombus;perimeter=rhombusPerimeter;whiteSpace=wrap;html=1;align=center;" parent="1" vertex="1">
          <mxGeometry x="-300" y="470" width="120" height="60" as="geometry" />
        </mxCell>
        <mxCell id="Smx8bIJCaOYHprBlWgsa-17" value="1,1" style="text;html=1;align=center;verticalAlign=middle;resizable=0;points=[];autosize=1;strokeColor=none;fillColor=none;" parent="1" vertex="1">
          <mxGeometry x="-240" y="415" width="40" height="30" as="geometry" />
        </mxCell>
        <mxCell id="Smx8bIJCaOYHprBlWgsa-18" value="1,N" style="text;html=1;align=center;verticalAlign=middle;resizable=0;points=[];autosize=1;strokeColor=none;fillColor=none;" parent="1" vertex="1">
          <mxGeometry x="-240" y="550" width="40" height="30" as="geometry" />
        </mxCell>
        <mxCell id="Smx8bIJCaOYHprBlWgsa-82" style="edgeStyle=orthogonalEdgeStyle;rounded=0;orthogonalLoop=1;jettySize=auto;html=1;entryX=1;entryY=0.5;entryDx=0;entryDy=0;endArrow=none;endFill=0;" parent="1" source="Smx8bIJCaOYHprBlWgsa-32" target="sopRcR-KDbMupNtGTnjP-26" edge="1">
          <mxGeometry relative="1" as="geometry" />
        </mxCell>
        <mxCell id="Smx8bIJCaOYHprBlWgsa-32" value="Comissão" style="swimlane;childLayout=stackLayout;horizontal=1;startSize=50;horizontalStack=0;rounded=1;fontSize=14;fontStyle=0;strokeWidth=2;resizeParent=0;resizeLast=1;shadow=0;dashed=0;align=center;arcSize=4;whiteSpace=wrap;html=1;" parent="1" vertex="1">
          <mxGeometry x="440" y="-40" width="160" height="120" as="geometry" />
        </mxCell>
        <mxCell id="Smx8bIJCaOYHprBlWgsa-33" value="- Código Comissão (PK)&lt;div&gt;- Data Criação&lt;/div&gt;&lt;div&gt;- Responsável Sênior&lt;/div&gt;" style="align=left;strokeColor=none;fillColor=none;spacingLeft=4;fontSize=12;verticalAlign=top;resizable=0;rotatable=0;part=1;html=1;" parent="Smx8bIJCaOYHprBlWgsa-32" vertex="1">
          <mxGeometry y="50" width="160" height="70" as="geometry" />
        </mxCell>
        <mxCell id="Smx8bIJCaOYHprBlWgsa-35" style="edgeStyle=none;rounded=0;orthogonalLoop=1;jettySize=auto;html=1;exitX=0.5;exitY=1;exitDx=0;exitDy=0;entryX=0.5;entryY=0;entryDx=0;entryDy=0;endArrow=none;endFill=0;" parent="1" source="Smx8bIJCaOYHprBlWgsa-33" target="sopRcR-KDbMupNtGTnjP-28" edge="1">
          <mxGeometry relative="1" as="geometry" />
        </mxCell>
        <mxCell id="Smx8bIJCaOYHprBlWgsa-36" value="Projeto" style="swimlane;childLayout=stackLayout;horizontal=1;startSize=50;horizontalStack=0;rounded=1;fontSize=14;fontStyle=0;strokeWidth=2;resizeParent=0;resizeLast=1;shadow=0;dashed=0;align=center;arcSize=4;whiteSpace=wrap;html=1;" parent="1" vertex="1">
          <mxGeometry x="80" y="296" width="160" height="120" as="geometry" />
        </mxCell>
        <mxCell id="Smx8bIJCaOYHprBlWgsa-37" value="&lt;div&gt;&lt;font style=&quot;vertical-align: inherit;&quot;&gt;&lt;font style=&quot;vertical-align: inherit;&quot;&gt;&lt;font style=&quot;vertical-align: inherit;&quot;&gt;&lt;font style=&quot;vertical-align: inherit;&quot;&gt;&lt;font style=&quot;vertical-align: inherit;&quot;&gt;&lt;font style=&quot;vertical-align: inherit;&quot;&gt;- Código Projeto (PK)&lt;/font&gt;&lt;/font&gt;&lt;/font&gt;&lt;/font&gt;&lt;/font&gt;&lt;/font&gt;&lt;/div&gt;&lt;div&gt;&lt;font style=&quot;vertical-align: inherit;&quot;&gt;&lt;font style=&quot;vertical-align: inherit;&quot;&gt;&lt;font style=&quot;vertical-align: inherit;&quot;&gt;&lt;font style=&quot;vertical-align: inherit;&quot;&gt;&lt;font style=&quot;vertical-align: inherit;&quot;&gt;&lt;font style=&quot;vertical-align: inherit;&quot;&gt;&lt;font style=&quot;vertical-align: inherit;&quot;&gt;&lt;font style=&quot;vertical-align: inherit;&quot;&gt;- Descrição&amp;nbsp;&lt;/font&gt;&lt;/font&gt;&lt;br&gt;&lt;/font&gt;&lt;/font&gt;&lt;/font&gt;&lt;/font&gt;&lt;/font&gt;&lt;/font&gt;&lt;/div&gt;&lt;div&gt;&lt;font style=&quot;vertical-align: inherit;&quot;&gt;&lt;font style=&quot;vertical-align: inherit;&quot;&gt;&lt;font style=&quot;vertical-align: inherit;&quot;&gt;&lt;font style=&quot;vertical-align: inherit;&quot;&gt;&lt;font style=&quot;vertical-align: inherit;&quot;&gt;&lt;font style=&quot;vertical-align: inherit;&quot;&gt;&lt;font style=&quot;vertical-align: inherit;&quot;&gt;&lt;font style=&quot;vertical-align: inherit;&quot;&gt;- Supervisor&lt;/font&gt;&lt;/font&gt;&lt;/font&gt;&lt;/font&gt;&lt;/font&gt;&lt;/font&gt;&lt;/font&gt;&lt;/font&gt;&lt;/div&gt;" style="align=left;strokeColor=none;fillColor=none;spacingLeft=4;fontSize=12;verticalAlign=top;resizable=0;rotatable=0;part=1;html=1;" parent="Smx8bIJCaOYHprBlWgsa-36" vertex="1">
          <mxGeometry y="50" width="160" height="70" as="geometry" />
        </mxCell>
        <mxCell id="Smx8bIJCaOYHprBlWgsa-38" value="Atividade" style="swimlane;childLayout=stackLayout;horizontal=1;startSize=50;horizontalStack=0;rounded=1;fontSize=14;fontStyle=0;strokeWidth=2;resizeParent=0;resizeLast=1;shadow=0;dashed=0;align=center;arcSize=4;whiteSpace=wrap;html=1;" parent="1" vertex="1">
          <mxGeometry x="-320" y="285" width="160" height="155" as="geometry" />
        </mxCell>
        <mxCell id="Smx8bIJCaOYHprBlWgsa-39" value="&lt;div&gt;- Código Projeto (PK)&lt;/div&gt;&lt;div&gt;&lt;span style=&quot;background-color: initial;&quot;&gt;- Código Atividade (PK)&lt;/span&gt;&lt;/div&gt;&lt;div&gt;&lt;div&gt;- Descrição&amp;nbsp;&lt;/div&gt;&lt;div&gt;- Data Inicio&lt;/div&gt;&lt;div&gt;- Duração&lt;/div&gt;&lt;div&gt;- Supervisor&lt;/div&gt;&lt;div&gt;&lt;br&gt;&lt;/div&gt;&lt;div&gt;&lt;br&gt;&lt;/div&gt;&lt;/div&gt;" style="align=left;strokeColor=none;fillColor=none;spacingLeft=4;fontSize=12;verticalAlign=top;resizable=0;rotatable=0;part=1;html=1;" parent="Smx8bIJCaOYHprBlWgsa-38" vertex="1">
          <mxGeometry y="50" width="160" height="105" as="geometry" />
        </mxCell>
        <mxCell id="Smx8bIJCaOYHprBlWgsa-41" value="Subatividade" style="swimlane;childLayout=stackLayout;horizontal=1;startSize=50;horizontalStack=0;rounded=1;fontSize=14;fontStyle=0;strokeWidth=2;resizeParent=0;resizeLast=1;shadow=0;dashed=0;align=center;arcSize=4;whiteSpace=wrap;html=1;" parent="1" vertex="1">
          <mxGeometry x="-320" y="580" width="160" height="170" as="geometry" />
        </mxCell>
        <mxCell id="Smx8bIJCaOYHprBlWgsa-42" value="&lt;div&gt;- Código da Atvidade(PK)&lt;/div&gt;- Código Subatividade (PK)&lt;div&gt;- Descrição&lt;/div&gt;&lt;div&gt;- Data Inicio&amp;nbsp;&lt;/div&gt;&lt;div&gt;- Duração&lt;/div&gt;" style="align=left;strokeColor=none;fillColor=none;spacingLeft=4;fontSize=12;verticalAlign=top;resizable=0;rotatable=0;part=1;html=1;" parent="Smx8bIJCaOYHprBlWgsa-41" vertex="1">
          <mxGeometry y="50" width="160" height="120" as="geometry" />
        </mxCell>
        <mxCell id="Smx8bIJCaOYHprBlWgsa-43" style="edgeStyle=none;rounded=0;orthogonalLoop=1;jettySize=auto;html=1;exitX=1;exitY=0.25;exitDx=0;exitDy=0;" parent="1" source="Smx8bIJCaOYHprBlWgsa-41" target="Smx8bIJCaOYHprBlWgsa-41" edge="1">
          <mxGeometry relative="1" as="geometry" />
        </mxCell>
        <mxCell id="Smx8bIJCaOYHprBlWgsa-44" value="Artigo" style="swimlane;childLayout=stackLayout;horizontal=1;startSize=50;horizontalStack=0;rounded=1;fontSize=14;fontStyle=0;strokeWidth=2;resizeParent=0;resizeLast=1;shadow=0;dashed=0;align=center;arcSize=4;whiteSpace=wrap;html=1;" parent="1" vertex="1">
          <mxGeometry x="910" y="295" width="160" height="120" as="geometry" />
        </mxCell>
        <mxCell id="mYLIAVt1_VowKoSVpf7--4" value="- Matrícula (PK)&lt;div&gt;-Título&lt;/div&gt;&lt;div&gt;-Nota&lt;/div&gt;&lt;div&gt;-Idioma&lt;/div&gt;" style="text;html=1;align=left;verticalAlign=middle;resizable=0;points=[];autosize=1;strokeColor=none;fillColor=none;" parent="Smx8bIJCaOYHprBlWgsa-44" vertex="1">
          <mxGeometry y="50" width="160" height="70" as="geometry" />
        </mxCell>
        <mxCell id="mYLIAVt1_VowKoSVpf7--6" style="edgeStyle=orthogonalEdgeStyle;rounded=0;orthogonalLoop=1;jettySize=auto;html=1;entryX=0.5;entryY=0;entryDx=0;entryDy=0;endArrow=none;endFill=0;" parent="1" source="mYLIAVt1_VowKoSVpf7--4" target="sopRcR-KDbMupNtGTnjP-55" edge="1">
          <mxGeometry relative="1" as="geometry" />
        </mxCell>
        <mxCell id="mYLIAVt1_VowKoSVpf7--25" style="edgeStyle=orthogonalEdgeStyle;rounded=0;orthogonalLoop=1;jettySize=auto;html=1;exitX=1;exitY=0.5;exitDx=0;exitDy=0;entryX=0;entryY=0.5;entryDx=0;entryDy=0;endArrow=none;endFill=0;" parent="1" source="sopRcR-KDbMupNtGTnjP-37" target="mYLIAVt1_VowKoSVpf7--21" edge="1">
          <mxGeometry relative="1" as="geometry" />
        </mxCell>
        <mxCell id="mYLIAVt1_VowKoSVpf7--31" style="edgeStyle=orthogonalEdgeStyle;rounded=0;orthogonalLoop=1;jettySize=auto;html=1;exitX=0;exitY=0.5;exitDx=0;exitDy=0;entryX=1;entryY=0.25;entryDx=0;entryDy=0;endArrow=none;endFill=0;" parent="1" source="sopRcR-KDbMupNtGTnjP-37" target="Smx8bIJCaOYHprBlWgsa-37" edge="1">
          <mxGeometry relative="1" as="geometry" />
        </mxCell>
        <mxCell id="sopRcR-KDbMupNtGTnjP-37" value="Realiza" style="shape=rhombus;perimeter=rhombusPerimeter;whiteSpace=wrap;html=1;align=center;" parent="1" vertex="1">
          <mxGeometry x="290" y="330" width="120" height="60" as="geometry" />
        </mxCell>
        <mxCell id="mYLIAVt1_VowKoSVpf7--10" style="edgeStyle=orthogonalEdgeStyle;rounded=0;orthogonalLoop=1;jettySize=auto;html=1;exitX=1;exitY=0.5;exitDx=0;exitDy=0;entryX=0.007;entryY=0.143;entryDx=0;entryDy=0;entryPerimeter=0;endArrow=none;endFill=0;" parent="1" source="sopRcR-KDbMupNtGTnjP-34" target="Smx8bIJCaOYHprBlWgsa-37" edge="1">
          <mxGeometry relative="1" as="geometry" />
        </mxCell>
        <mxCell id="mYLIAVt1_VowKoSVpf7--11" value="Cargo" style="swimlane;fontStyle=0;childLayout=stackLayout;horizontal=1;startSize=30;horizontalStack=0;resizeParent=1;resizeParentMax=0;resizeLast=0;collapsible=1;marginBottom=0;whiteSpace=wrap;html=1;" parent="1" vertex="1">
          <mxGeometry x="450" y="620" width="140" height="90" as="geometry">
            <mxRectangle x="450" y="620" width="70" height="30" as="alternateBounds" />
          </mxGeometry>
        </mxCell>
        <mxCell id="mYLIAVt1_VowKoSVpf7--12" value="- Código Cargo (PK)" style="text;strokeColor=none;fillColor=none;align=left;verticalAlign=middle;spacingLeft=4;spacingRight=4;overflow=hidden;points=[[0,0.5],[1,0.5]];portConstraint=eastwest;rotatable=0;whiteSpace=wrap;html=1;" parent="mYLIAVt1_VowKoSVpf7--11" vertex="1">
          <mxGeometry y="30" width="140" height="30" as="geometry" />
        </mxCell>
        <mxCell id="mYLIAVt1_VowKoSVpf7--13" value="- Descrição" style="text;strokeColor=none;fillColor=none;align=left;verticalAlign=middle;spacingLeft=4;spacingRight=4;overflow=hidden;points=[[0,0.5],[1,0.5]];portConstraint=eastwest;rotatable=0;whiteSpace=wrap;html=1;" parent="mYLIAVt1_VowKoSVpf7--11" vertex="1">
          <mxGeometry y="60" width="140" height="30" as="geometry" />
        </mxCell>
        <mxCell id="mYLIAVt1_VowKoSVpf7--18" style="edgeStyle=orthogonalEdgeStyle;rounded=0;orthogonalLoop=1;jettySize=auto;html=1;exitX=1;exitY=0.5;exitDx=0;exitDy=0;entryX=-0.002;entryY=0.206;entryDx=0;entryDy=0;entryPerimeter=0;endArrow=none;endFill=0;" parent="1" source="sopRcR-KDbMupNtGTnjP-48" target="mYLIAVt1_VowKoSVpf7--4" edge="1">
          <mxGeometry relative="1" as="geometry" />
        </mxCell>
        <mxCell id="mYLIAVt1_VowKoSVpf7--19" value="Pesquisador" style="swimlane;fontStyle=0;childLayout=stackLayout;horizontal=1;startSize=30;horizontalStack=0;resizeParent=1;resizeParentMax=0;resizeLast=0;collapsible=1;marginBottom=0;whiteSpace=wrap;html=1;" parent="1" vertex="1">
          <mxGeometry x="450" y="285" width="140" height="150" as="geometry" />
        </mxCell>
        <mxCell id="mYLIAVt1_VowKoSVpf7--20" value="CPF (PK)" style="text;strokeColor=none;fillColor=none;align=left;verticalAlign=middle;spacingLeft=4;spacingRight=4;overflow=hidden;points=[[0,0.5],[1,0.5]];portConstraint=eastwest;rotatable=0;whiteSpace=wrap;html=1;" parent="mYLIAVt1_VowKoSVpf7--19" vertex="1">
          <mxGeometry y="30" width="140" height="30" as="geometry" />
        </mxCell>
        <mxCell id="mYLIAVt1_VowKoSVpf7--21" value="Nome&lt;div&gt;Senior?&amp;nbsp;&lt;/div&gt;" style="text;strokeColor=none;fillColor=none;align=left;verticalAlign=middle;spacingLeft=4;spacingRight=4;overflow=hidden;points=[[0,0.5],[1,0.5]];portConstraint=eastwest;rotatable=0;whiteSpace=wrap;html=1;" parent="mYLIAVt1_VowKoSVpf7--19" vertex="1">
          <mxGeometry y="60" width="140" height="30" as="geometry" />
        </mxCell>
        <mxCell id="mYLIAVt1_VowKoSVpf7--22" value="Instituição" style="text;strokeColor=none;fillColor=none;align=left;verticalAlign=middle;spacingLeft=4;spacingRight=4;overflow=hidden;points=[[0,0.5],[1,0.5]];portConstraint=eastwest;rotatable=0;whiteSpace=wrap;html=1;" parent="mYLIAVt1_VowKoSVpf7--19" vertex="1">
          <mxGeometry y="90" width="140" height="30" as="geometry" />
        </mxCell>
        <mxCell id="mYLIAVt1_VowKoSVpf7--24" value="Data de nascimento" style="text;strokeColor=none;fillColor=none;align=left;verticalAlign=middle;spacingLeft=4;spacingRight=4;overflow=hidden;points=[[0,0.5],[1,0.5]];portConstraint=eastwest;rotatable=0;whiteSpace=wrap;html=1;" parent="mYLIAVt1_VowKoSVpf7--19" vertex="1">
          <mxGeometry y="120" width="140" height="30" as="geometry" />
        </mxCell>
        <mxCell id="mYLIAVt1_VowKoSVpf7--27" style="edgeStyle=orthogonalEdgeStyle;rounded=0;orthogonalLoop=1;jettySize=auto;html=1;exitX=1;exitY=0.5;exitDx=0;exitDy=0;entryX=0;entryY=0.5;entryDx=0;entryDy=0;endArrow=none;endFill=0;" parent="1" source="mYLIAVt1_VowKoSVpf7--21" target="sopRcR-KDbMupNtGTnjP-48" edge="1">
          <mxGeometry relative="1" as="geometry" />
        </mxCell>
        <mxCell id="mYLIAVt1_VowKoSVpf7--32" value="Evento" style="swimlane;fontStyle=0;childLayout=stackLayout;horizontal=1;startSize=30;horizontalStack=0;resizeParent=1;resizeParentMax=0;resizeLast=0;collapsible=1;marginBottom=0;whiteSpace=wrap;html=1;" parent="1" vertex="1">
          <mxGeometry x="920" y="570" width="140" height="90" as="geometry" />
        </mxCell>
        <mxCell id="mYLIAVt1_VowKoSVpf7--33" value="Código (PK)&amp;nbsp;" style="text;strokeColor=none;fillColor=none;align=left;verticalAlign=middle;spacingLeft=4;spacingRight=4;overflow=hidden;points=[[0,0.5],[1,0.5]];portConstraint=eastwest;rotatable=0;whiteSpace=wrap;html=1;" parent="mYLIAVt1_VowKoSVpf7--32" vertex="1">
          <mxGeometry y="30" width="140" height="30" as="geometry" />
        </mxCell>
        <mxCell id="mYLIAVt1_VowKoSVpf7--34" value="Sigla" style="text;strokeColor=none;fillColor=none;align=left;verticalAlign=middle;spacingLeft=4;spacingRight=4;overflow=hidden;points=[[0,0.5],[1,0.5]];portConstraint=eastwest;rotatable=0;whiteSpace=wrap;html=1;" parent="mYLIAVt1_VowKoSVpf7--32" vertex="1">
          <mxGeometry y="60" width="140" height="30" as="geometry" />
        </mxCell>
      </root>
    </mxGraphModel>
  </diagram>
  <diagram id="Ac4bcS30NotVYvDejq3M" name="Página-2">
    <mxGraphModel dx="1050" dy="522" grid="1" gridSize="10" guides="1" tooltips="1" connect="1" arrows="1" fold="1" page="1" pageScale="1" pageWidth="827" pageHeight="1169" math="0" shadow="0">
      <root>
        <mxCell id="0" />
        <mxCell id="1" parent="0" />
      </root>
    </mxGraphModel>
  </diagram>
</mxfile>
